<?xml version="1.0" encoding="UTF-8"?>
<svg id="App_Store" xmlns="http://www.w3.org/2000/svg" version="1.1" viewBox="0 0 194.8 55.1">
  <!-- Generator: Adobe Illustrator 29.0.1, SVG Export Plug-In . SVG Version: 2.1.0 Build 192)  -->
  <defs>
    <style>
      .st0 {
        fill: #fff;
      }
    </style>
  </defs>
  <g>
    <path class="st0" d="M61.1,12.7l-.9,3h-2l3.4-10.5h2.5l3.4,10.5h-2.1l-1-3h-3.3ZM64.1,11.3l-.8-2.6c-.2-.6-.4-1.4-.5-2h0c-.2.6-.3,1.3-.5,2l-.8,2.6h2.7Z"/>
    <path class="st0" d="M70.3,8.1l1.2,3.9c.2.7.4,1.3.5,1.9h0c.1-.6.3-1.2.5-1.9l1.2-3.9h2l-2.9,7.6h-1.9l-2.8-7.6h2.1Z"/>
    <path class="st0" d="M83.6,13.9c0,.7,0,1.4.1,1.8h-1.7v-.8h-.2c-.5.6-1.2,1-2.2,1-1.5,0-2.4-1.1-2.4-2.3,0-1.9,1.7-2.9,4.5-2.9h0c0-.6-.2-1.5-1.5-1.5s-1.5.2-2,.6l-.4-1.2c.6-.3,1.5-.7,2.7-.7,2.4,0,3.1,1.5,3.1,3.2v2.7ZM81.7,12c-1.4,0-2.7.3-2.7,1.4s.5,1.1,1.1,1.1,1.3-.5,1.5-1c0-.1,0-.3,0-.4v-1Z"/>
    <path class="st0" d="M87.2,7c-.6,0-1.1-.5-1.1-1s.4-1,1.1-1,1.1.5,1.1,1c0,.6-.4,1-1.1,1h0ZM86.3,15.7v-7.6h1.9v7.6h-1.9Z"/>
    <path class="st0" d="M90.9,4.6h1.9v11.1h-1.9V4.6Z"/>
    <path class="st0" d="M101.5,13.9c0,.7,0,1.4.1,1.8h-1.7v-.8h-.2c-.5.6-1.2,1-2.2,1-1.5,0-2.4-1.1-2.4-2.3,0-1.9,1.7-2.9,4.5-2.9h0c0-.6-.2-1.5-1.5-1.5s-1.5.2-2,.6l-.4-1.2c.6-.3,1.5-.7,2.7-.7,2.4,0,3.1,1.5,3.1,3.2v2.7ZM99.7,12c-1.4,0-2.7.3-2.7,1.4s.5,1.1,1.1,1.1,1.3-.5,1.5-1c0-.1,0-.3,0-.4v-1Z"/>
    <path class="st0" d="M104.3,4.6h1.9v4.5h0c.5-.7,1.3-1.2,2.4-1.2,1.9,0,3.2,1.5,3.2,3.9,0,2.7-1.7,4.1-3.4,4.1s-1.9-.4-2.4-1.3h0v1.1h-1.7c0-.5,0-1.4,0-2.1V4.6ZM106.2,12.6c0,.2,0,.3,0,.5.2.8.9,1.3,1.7,1.3,1.2,0,1.9-1,1.9-2.5s-.6-2.4-1.9-2.4-1.5.6-1.7,1.4c0,.1,0,.3,0,.5v1.2Z"/>
    <path class="st0" d="M114.1,4.6h1.9v11.1h-1.9V4.6Z"/>
    <path class="st0" d="M120.1,12.4c0,1.4,1.1,2,2.3,2s1.5-.1,2.1-.3l.3,1.3c-.7.3-1.6.5-2.7.5-2.5,0-3.9-1.5-3.9-3.8s1.3-4.1,3.7-4.1,3.3,2,3.3,3.7,0,.6,0,.8h-5.1ZM123.5,11.1c0-.7-.3-1.9-1.6-1.9s-1.7,1.1-1.8,1.9h3.3Z"/>
    <path class="st0" d="M134.8,15.9c-2.1,0-3.8-1.5-3.8-3.9s1.6-4,3.9-4,3.8,1.6,3.8,3.9-2,4-3.9,4h0ZM134.8,14.5c1.1,0,1.9-1.1,1.9-2.6s-.5-2.6-1.8-2.6-1.9,1.3-1.9,2.6.7,2.6,1.9,2.6h0Z"/>
    <path class="st0" d="M140.9,10.4c0-.9,0-1.6,0-2.3h1.7v1.1h.1c.3-.6,1.2-1.3,2.4-1.3s2.7.9,2.7,3.3v4.5h-1.9v-4.3c0-1.1-.4-1.9-1.5-1.9s-1.3.5-1.5,1.1c0,.2,0,.4,0,.6v4.5h-1.9v-5.3Z"/>
    <path class="st0" d="M156.6,6.1v2h1.8v1.4h-1.8v3.3c0,.9.2,1.4,1,1.4s.5,0,.7,0v1.5c-.2.1-.8.2-1.4.2s-1.3-.2-1.7-.6c-.4-.4-.6-1.1-.6-2.1v-3.6h-1.1v-1.4h1.1v-1.4l1.9-.5Z"/>
    <path class="st0" d="M160.6,4.6h1.9v4.5h0c.2-.4.6-.7,1-.9.4-.2.8-.3,1.3-.3,1.3,0,2.7.9,2.7,3.3v4.5h-1.9v-4.3c0-1.1-.4-1.9-1.5-1.9s-1.3.5-1.5,1.1c0,.2,0,.4,0,.6v4.6h-1.9V4.6Z"/>
    <path class="st0" d="M171.6,12.4c0,1.4,1.1,2,2.3,2s1.5-.1,2.1-.3l.3,1.3c-.7.3-1.6.5-2.7.5-2.5,0-3.9-1.5-3.9-3.8s1.3-4.1,3.7-4.1,3.3,2,3.3,3.7,0,.6,0,.8h-5.1ZM174.9,11.1c0-.7-.3-1.9-1.6-1.9s-1.7,1.1-1.8,1.9h3.3Z"/>
  </g>
  <g>
    <g>
      <path class="st0" d="M37.2,25.9c0-5.2,4.3-7.7,4.5-7.9-2.4-3.6-6.2-4-7.6-4.1-3.2-.3-6.3,1.9-7.9,1.9s-4.1-1.9-6.8-1.8c-3.5,0-6.7,2.1-8.5,5.2-3.7,6.3-.9,15.7,2.6,20.8,1.8,2.5,3.8,5.3,6.5,5.2,2.6-.1,3.6-1.7,6.8-1.7s4.1,1.7,6.8,1.6c2.8,0,4.6-2.5,6.3-5.1,2-2.9,2.8-5.7,2.9-5.9,0,0-5.5-2.1-5.5-8.3"/>
      <path class="st0" d="M32.1,10.6c1.4-1.8,2.4-4.2,2.1-6.6-2,0-4.6,1.4-6.1,3.1-1.3,1.5-2.5,4-2.2,6.4,2.3.2,4.7-1.2,6.1-2.9"/>
    </g>
    <g>
      <path class="st0" d="M75.2,44.8h-3.7l-2-6.3h-7l-1.9,6.3h-3.6l6.9-21.4h4.3l6.9,21.4ZM68.9,35.8l-1.8-5.6c-.2-.6-.6-1.9-1.1-4h0c-.2.9-.6,2.3-1,4l-1.8,5.6h5.8Z"/>
      <path class="st0" d="M92.9,36.9c0,2.6-.7,4.7-2.1,6.2-1.3,1.4-2.9,2-4.7,2s-3.5-.7-4.4-2.2h0v8.1h-3.4v-16.7c0-1.7,0-3.3-.1-5.1h3l.2,2.4h0c1.1-1.8,2.9-2.8,5.2-2.8s3.3.7,4.6,2.2c1.2,1.4,1.8,3.3,1.8,5.7M89.4,37c0-1.5-.3-2.7-1-3.7-.7-1-1.7-1.5-3-1.5s-1.6.3-2.3.8c-.7.6-1.1,1.3-1.4,2.2-.1.4-.2.8-.2,1v2.6c0,1.1.3,2.1,1,2.8.7.8,1.6,1.2,2.7,1.2s2.3-.5,3-1.5c.7-1,1.1-2.3,1.1-3.9"/>
      <path class="st0" d="M110.7,36.9c0,2.6-.7,4.7-2.1,6.2-1.3,1.4-2.8,2-4.7,2s-3.5-.7-4.4-2.2h0v8.1h-3.4v-16.7c0-1.7,0-3.3-.1-5.1h3l.2,2.4h0c1.1-1.8,2.9-2.8,5.2-2.8s3.3.7,4.6,2.2c1.2,1.4,1.8,3.3,1.8,5.7M107.2,37c0-1.5-.3-2.7-1-3.7-.7-1-1.7-1.5-3-1.5s-1.6.3-2.3.8c-.7.6-1.1,1.3-1.3,2.2-.1.4-.2.8-.2,1v2.6c0,1.1.3,2.1,1,2.8.7.8,1.6,1.2,2.7,1.2s2.3-.5,3-1.5c.7-1,1.1-2.3,1.1-3.9"/>
      <path class="st0" d="M130.6,38.8c0,1.8-.6,3.3-1.9,4.5-1.4,1.3-3.3,1.9-5.8,1.9s-4.2-.4-5.6-1.3l.8-2.9c1.5.9,3.2,1.4,5,1.4s2.3-.3,3-.9c.7-.6,1.1-1.4,1.1-2.3s-.3-1.6-.9-2.2c-.6-.6-1.6-1.1-3-1.7-3.8-1.4-5.6-3.5-5.6-6.1s.7-3.2,2-4.3c1.3-1.1,3.1-1.7,5.2-1.7s3.6.3,4.9,1l-.9,2.8c-1.2-.7-2.6-1-4.1-1s-2.2.3-2.8.9c-.6.5-.9,1.2-.9,1.9s.3,1.5,1,2.1c.6.5,1.6,1.1,3.1,1.7,1.8.7,3.2,1.6,4.1,2.6.9,1,1.3,2.2,1.3,3.7"/>
      <path class="st0" d="M141.9,31.9h-3.8v7.5c0,1.9.7,2.9,2,2.9s1.1,0,1.5-.2v2.6c-.6.3-1.5.4-2.6.4s-2.4-.4-3.2-1.2c-.8-.8-1.1-2.2-1.1-4.2v-7.8h-2.3v-2.6h2.3v-2.8l3.4-1v3.8h3.8v2.6Z"/>
      <path class="st0" d="M159,36.9c0,2.4-.7,4.3-2,5.9-1.4,1.6-3.3,2.4-5.7,2.4s-4.1-.8-5.4-2.3c-1.3-1.5-2-3.4-2-5.7s.7-4.4,2.1-5.9c1.4-1.5,3.3-2.3,5.6-2.3s4.1.8,5.5,2.3c1.3,1.5,2,3.3,2,5.7M155.5,37c0-1.4-.3-2.6-.9-3.7-.7-1.2-1.7-1.9-3.1-1.9s-2.4.6-3.1,1.9c-.6,1-.9,2.3-.9,3.7s.3,2.6.9,3.7c.7,1.2,1.8,1.8,3.1,1.8s2.3-.6,3.1-1.9c.6-1,1-2.3,1-3.7"/>
      <path class="st0" d="M170.2,32.3c-.3,0-.7,0-1.1,0-1.2,0-2.1.5-2.8,1.4-.6.8-.9,1.8-.9,3.1v8.1h-3.4v-10.6c0-1.8,0-3.4,0-4.9h3v3h.2c.4-1,.9-1.8,1.7-2.4.8-.6,1.6-.8,2.5-.8s.6,0,.9,0v3.3Z"/>
      <path class="st0" d="M185.6,36.3c0,.6,0,1.1-.1,1.6h-10.3c0,1.5.5,2.7,1.5,3.5.9.7,2,1.1,3.4,1.1s2.9-.2,4.2-.7l.5,2.4c-1.5.6-3.2,1-5.2,1s-4.3-.7-5.6-2.1c-1.4-1.4-2.1-3.3-2.1-5.7s.6-4.3,1.9-5.8c1.3-1.7,3.1-2.5,5.4-2.5s3.9.8,5.1,2.5c.9,1.3,1.4,2.9,1.4,4.9M182.3,35.4c0-1-.2-1.9-.7-2.6-.6-1-1.5-1.4-2.7-1.4s-2,.5-2.7,1.4c-.6.7-.9,1.6-1,2.7h7.2Z"/>
    </g>
  </g>
</svg>