<?xml version="1.0" encoding="UTF-8"?>
<svg id="Layer_1" xmlns="http://www.w3.org/2000/svg" version="1.1" xmlns:xlink="http://www.w3.org/1999/xlink" viewBox="0 0 589 232.6">
  <!-- Generator: Adobe Illustrator 29.3.1, SVG Export Plug-In . SVG Version: 2.1.0 Build 151)  -->
  <defs>
    <style>
      .st0 {
        fill: #16ace8;
      }

      .st1 {
        fill: #fff;
      }

      .st2 {
        fill: #1588fb;
      }

      .st3, .st4, .st5 {
        fill: none;
        stroke: #fff;
        stroke-miterlimit: 10;
        stroke-width: 1px;
      }

      .st4 {
        stroke-dasharray: 2 4 2 4 2 4;
      }

      .st5 {
        stroke-dasharray: 2 4 2 4;
      }
    </style>
  </defs>
  <g>
    <path class="st3" d="M0,232.6s.3,0,1-.2"/>
    <path class="st5" d="M5,231.8c2.5-.4,5.8-.9,9.8-1.6"/>
    <path class="st4" d="M16.8,229.9c27.7-4.6,82.9-14.3,113.5-23.8,41.9-12.9,60.1-19.5,96-36.2,35.9-16.7,66.5-37.1,78.8-49.9s22.1-30,25.4-42.2c3.3-12.3,2.8-38.7-2.8-50.8-5.6-12.1-22.6-22.5-31.7-25.1s-30.1-1.4-41,4.7c-11,6.1-23.8,19.9-20,35.1,3.7,15,14.9,28.8,25.4,36.2,10.5,7.5,25.6,15.7,39.6,18.8,14,3,39.4,8.9,64.3,8.9s47.5-1.9,68-4c20.5-2.1,45-5.8,55.9-8.2,8.9-1.9,30.9-7.3,38.8-9.3"/>
    <path class="st3" d="M528.9,83.6c.6-.2,1-.2,1-.2"/>
  </g>
  <polygon class="st1" points="589 57 526.4 59 533.8 73.9 589 57"/>
  <polygon class="st0" points="589 57 533.8 73.9 531 83.7 589 57"/>
  <polygon class="st2" points="589 57 531 83.7 539.8 87.8 589 57"/>
  <polygon class="st1" points="589 57 539.8 87.8 547.2 102.9 589 57"/>
</svg>