<?xml version="1.0" encoding="UTF-8"?>
<svg id="Layer_1" xmlns="http://www.w3.org/2000/svg" version="1.1" xmlns:xlink="http://www.w3.org/1999/xlink" viewBox="0 0 194.8 55.1">
  <!-- Generator: Adobe Illustrator 29.0.1, SVG Export Plug-In . SVG Version: 2.1.0 Build 192)  -->
  <defs>
    <style>
      .st0 {
        fill: url(#linear-gradient2);
      }

      .st1 {
        fill: #fff;
      }

      .st2 {
        fill: url(#linear-gradient1);
      }

      .st3 {
        fill: #5bc9f4;
      }

      .st4 {
        fill: url(#linear-gradient);
      }
    </style>
    <linearGradient id="linear-gradient" x1="38.2" y1="31.3" x2="-.7" y2="31.3" gradientTransform="translate(0 58) scale(1 -1)" gradientUnits="userSpaceOnUse">
      <stop offset="0" stop-color="#fee000"/>
      <stop offset=".4" stop-color="#fbbc0e"/>
      <stop offset=".8" stop-color="#f9a318"/>
      <stop offset="1" stop-color="#f99b1c"/>
    </linearGradient>
    <linearGradient id="linear-gradient1" x1="28.1" y1="27.6" x2="-8.5" y2="-9" gradientTransform="translate(0 58) scale(1 -1)" gradientUnits="userSpaceOnUse">
      <stop offset="0" stop-color="#ef4547"/>
      <stop offset="1" stop-color="#c6186d"/>
    </linearGradient>
    <linearGradient id="linear-gradient2" x1="-8.6" y1="71.8" x2="21.3" y2="41.9" gradientTransform="translate(0 58) scale(1 -1)" gradientUnits="userSpaceOnUse">
      <stop offset="0" stop-color="#279e6f"/>
      <stop offset="0" stop-color="#2b9f6e"/>
      <stop offset=".5" stop-color="#52b16b"/>
      <stop offset=".8" stop-color="#6bbc69"/>
      <stop offset="1" stop-color="#74c169"/>
    </linearGradient>
  </defs>
  <g id="Google_Play">
    <g>
      <g>
        <path class="st1" d="M97.8,29.5c-3.8,0-6.9,2.9-6.9,6.8s3.1,6.8,6.9,6.8,6.9-2.9,6.9-6.8-3.1-6.8-6.9-6.8ZM97.8,40.5c-2.1,0-3.9-1.7-3.9-4.1s1.8-4.1,3.9-4.1,3.9,1.7,3.9,4.1-1.8,4.1-3.9,4.1ZM82.8,29.5c-3.8,0-6.9,2.9-6.9,6.8s3.1,6.8,6.9,6.8,6.9-2.9,6.9-6.8-3.1-6.8-6.9-6.8ZM82.8,40.5c-2.1,0-3.9-1.7-3.9-4.1s1.8-4.1,3.9-4.1,3.9,1.7,3.9,4.1-1.8,4.1-3.9,4.1ZM65,31.6v2.9h6.9c-.2,1.6-.8,2.8-1.6,3.7-1,1-2.6,2.1-5.4,2.1-4.3,0-7.6-3.4-7.6-7.7s3.3-7.7,7.6-7.7,4,.9,5.2,2.1l2-2c-1.7-1.7-4-2.9-7.3-2.9-5.9,0-10.8,4.8-10.8,10.6s4.9,10.6,10.8,10.6,5.5-1,7.4-3c1.9-1.9,2.5-4.6,2.5-6.8s0-1.3-.2-1.8h-9.8.3ZM137.9,33.9c-.6-1.5-2.3-4.4-5.9-4.4s-6.5,2.8-6.5,6.8,2.9,6.8,6.8,6.8,4.9-1.9,5.7-3l-2.3-1.6c-.8,1.1-1.8,1.9-3.4,1.9s-2.6-.7-3.3-2.1l9.1-3.8-.3-.8v.2ZM128.5,36.2c0-2.6,2-4,3.6-4s2.2.6,2.5,1.5l-6.1,2.5ZM121.1,42.8h3v-20.1h-3v20.1ZM116.2,31.1h0c-.7-.8-2-1.5-3.6-1.5-3.4,0-6.6,3-6.6,6.9s3.1,6.8,6.6,6.8,2.9-.7,3.6-1.6h0v1c0,2.6-1.4,4-3.7,4s-3-1.3-3.4-2.4l-2.6,1.1c.8,1.8,2.7,4,6.1,4s6.5-2.1,6.5-7.1v-12.3h-2.9v1.1ZM112.7,40.5c-2.1,0-3.8-1.7-3.8-4.1s1.7-4.2,3.8-4.2,3.7,1.8,3.7,4.2-1.6,4.1-3.7,4.1ZM151.9,22.7h-7.2v20.1h3v-7.6h4.2c3.3,0,6.6-2.4,6.6-6.2s-3.3-6.2-6.6-6.2h0ZM152,32.4h-4.3v-6.9h4.3c2.2,0,3.5,1.9,3.5,3.4s-1.3,3.4-3.5,3.4h0ZM170.6,29.5c-2.2,0-4.4,1-5.4,3.1l2.7,1.1c.6-1.1,1.6-1.5,2.7-1.5s3.1.9,3.2,2.6v.2c-.5-.3-1.7-.8-3.1-.8-2.9,0-5.8,1.6-5.8,4.5s2.4,4.4,5,4.4,3.1-.9,3.8-2h.1v1.6h2.9v-7.7c0-3.6-2.7-5.6-6.1-5.6h0ZM170.2,40.5c-1,0-2.4-.5-2.4-1.7s1.7-2.1,3.2-2.1,1.9.3,2.7.7c-.2,1.9-1.8,3.2-3.6,3.2h.1ZM187.2,29.9l-3.4,8.7h-.1l-3.6-8.7h-3.2l5.4,12.2-3.1,6.8h3.1l8.3-19h-3.4ZM160.2,42.8h3v-20.1h-3v20.1Z"/>
        <g>
          <path class="st3" d="M5,6.7c-.5.5-.7,1.3-.7,2.3v35.5c0,1,.3,1.8.7,2.3h0c0,0,19.9-19.8,19.9-19.8v-.5L5.1,6.6h0Z"/>
          <path class="st4" d="M31.6,33.6l-6.6-6.6v-.5l6.6-6.6h.1l7.9,4.6c2.2,1.3,2.2,3.4,0,4.6l-7.9,4.5h-.2,0Z"/>
          <path class="st2" d="M31.8,33.5l-6.8-6.8L5,46.7c.7.8,2,.9,3.3,0l23.5-13.3"/>
          <path class="st0" d="M31.8,19.9L8.3,6.6c-1.4-.8-2.6-.7-3.3,0l20,20,6.8-6.8h0Z"/>
        </g>
      </g>
      <g>
        <path class="st1" d="M61.9,7.8c-.6-.5-1.4-.9-2.3-.9-2,0-3.5,1.6-3.5,3.6s1.5,3.6,3.5,3.6,2.9-1,3-2.6h-2.7v-1.1h4.1c0,3.3-1.8,4.9-4.5,4.9s-4.8-2.2-4.8-4.8,2.1-4.9,4.8-4.9,2.4.5,3.2,1.2l-.9.9h.1Z"/>
        <path class="st1" d="M71.5,5.8v1.2h-4.3v3h3.8v1.2h-3.8v2.9h4.5v1.2h-5.7V5.8h5.6,0Z"/>
        <path class="st1" d="M79.8,5.8v1.2h-2.9v8.3h-1.3V7h-2.9v-1.2h7.1Z"/>
        <path class="st1" d="M85.9,5.8v9.5h-1.3V5.8h1.3Z"/>
        <path class="st1" d="M94.6,5.8v1.2h-2.9v8.3h-1.3V7h-2.9v-1.2h7.1Z"/>
        <path class="st1" d="M103.6,5.7c2.7,0,4.8,2.2,4.8,4.9s-2.1,4.8-4.8,4.8-4.8-2.2-4.8-4.8,2.1-4.9,4.8-4.9ZM103.6,14.2c2,0,3.5-1.6,3.5-3.6s-1.5-3.6-3.5-3.6-3.5,1.6-3.5,3.6,1.5,3.6,3.5,3.6Z"/>
        <path class="st1" d="M116,15.3l-4.3-7.1v7.1h-1.3V5.8h1.3l4.3,7.1v-7.1h1.3v9.5h-1.3Z"/>
      </g>
    </g>
  </g>
</svg>