<svg width="594" height="702" viewBox="0 0 594 702" fill="none" xmlns="http://www.w3.org/2000/svg">
<path d="M303.987 172.998H50.7565C22.7245 172.998 0 189.429 0 209.698V665.299C0 685.568 22.7245 702 50.7565 702H303.987C332.019 702 354.743 685.568 354.743 665.299V209.698C354.743 189.429 332.019 172.998 303.987 172.998Z" fill="#F3F3F3"/>
<path d="M308.673 169.598H55.4425C27.4105 169.598 4.68604 186.029 4.68604 206.298V661.899C4.68604 682.168 27.4105 698.599 55.4425 698.599H308.673C336.705 698.599 359.429 682.168 359.429 661.899V206.298C359.429 186.029 336.705 169.598 308.673 169.598Z" fill="#F2F2F2"/>
<path d="M313.375 166.21H60.1447C32.1126 166.21 9.38818 182.641 9.38818 202.91V658.511C9.38818 678.78 32.1126 695.212 60.1447 695.212H313.375C341.407 695.212 364.131 678.78 364.131 658.511V202.91C364.131 182.641 341.407 166.21 313.375 166.21Z" fill="#F2F2F2"/>
<path d="M318.06 162.822H64.8302C36.7982 162.822 14.0737 179.254 14.0737 199.523V655.124C14.0737 675.393 36.7982 691.824 64.8302 691.824H318.06C346.092 691.824 368.817 675.393 368.817 655.124V199.523C368.817 179.254 346.092 162.822 318.06 162.822Z" fill="#F1F1F1"/>
<path d="M322.746 159.422H69.5163C41.4842 159.422 18.7598 175.853 18.7598 196.122V651.723C18.7598 671.992 41.4842 688.424 69.5163 688.424H322.746C350.779 688.424 373.503 671.992 373.503 651.723V196.122C373.503 175.853 350.779 159.422 322.746 159.422Z" fill="#F1F1F1"/>
<path d="M327.449 156.033H74.2184C46.1864 156.033 23.4619 172.464 23.4619 192.733V648.335C23.4619 668.604 46.1864 685.035 74.2184 685.035H327.449C355.481 685.035 378.205 668.604 378.205 648.335V192.733C378.205 172.464 355.481 156.033 327.449 156.033Z" fill="#F1F0F0"/>
<path d="M332.135 152.646H78.9044C50.8724 152.646 28.1479 169.077 28.1479 189.346V644.947C28.1479 665.216 50.8724 681.647 78.9044 681.647H332.135C360.167 681.647 382.891 665.216 382.891 644.947V189.346C382.891 169.077 360.167 152.646 332.135 152.646Z" fill="#F0F0F0"/>
<path d="M336.82 149.258H83.59C55.558 149.258 32.8335 165.689 32.8335 185.958V641.559C32.8335 661.828 55.558 678.26 83.59 678.26H336.82C364.852 678.26 387.577 661.828 387.577 641.559V185.958C387.577 165.689 364.852 149.258 336.82 149.258Z" fill="#F0F0F0"/>
<path d="M341.523 145.857H88.2926C60.2606 145.857 37.5361 162.289 37.5361 182.558V638.159C37.5361 658.428 60.2606 674.859 88.2926 674.859H341.523C369.555 674.859 392.279 658.428 392.279 638.159V182.558C392.279 162.289 369.555 145.857 341.523 145.857Z" fill="#EFEFEF"/>
<path d="M346.208 142.469H92.9782C64.9461 142.469 42.2217 158.9 42.2217 179.169V634.77C42.2217 655.039 64.9461 671.47 92.9782 671.47H346.208C374.24 671.47 396.965 655.039 396.965 634.77V179.169C396.965 158.9 374.24 142.469 346.208 142.469Z" fill="#EFEFEF"/>
<path d="M350.894 139.081H97.6637C69.6317 139.081 46.9072 155.512 46.9072 175.781V631.382C46.9072 651.651 69.6317 668.083 97.6637 668.083H350.894C378.926 668.083 401.65 651.651 401.65 631.382V175.781C401.65 155.512 378.926 139.081 350.894 139.081Z" fill="#EEEEEE"/>
<path d="M355.597 135.681H102.366C74.3343 135.681 51.6099 152.112 51.6099 172.381V627.982C51.6099 648.251 74.3343 664.682 102.366 664.682H355.597C383.629 664.682 406.353 648.251 406.353 627.982V172.381C406.353 152.112 383.629 135.681 355.597 135.681Z" fill="#EEEEEE"/>
<path d="M360.283 132.293H107.052C79.0204 132.293 56.2959 148.724 56.2959 168.993V624.594C56.2959 644.863 79.0204 661.295 107.052 661.295H360.283C388.315 661.295 411.039 644.863 411.039 624.594V168.993C411.039 148.724 388.315 132.293 360.283 132.293Z" fill="#EEEDED"/>
<path d="M364.968 128.905H111.738C83.7059 128.905 60.9814 145.337 60.9814 165.606V621.207C60.9814 641.476 83.7059 657.907 111.738 657.907H364.968C393 657.907 415.725 641.476 415.725 621.207V165.606C415.725 145.337 393 128.905 364.968 128.905Z" fill="#EDEDED"/>
<path d="M369.671 125.504H116.441C88.4085 125.504 65.6841 141.935 65.6841 162.204V617.805C65.6841 638.074 88.4085 654.506 116.441 654.506H369.671C397.703 654.506 420.427 638.074 420.427 617.805V162.204C420.427 141.935 397.703 125.504 369.671 125.504Z" fill="#EDEDEC"/>
<path d="M374.356 122.116H121.126C93.0941 122.116 70.3696 138.547 70.3696 158.816V614.418C70.3696 634.687 93.0941 651.118 121.126 651.118H374.356C402.388 651.118 425.113 634.687 425.113 614.418V158.816C425.113 138.547 402.388 122.116 374.356 122.116Z" fill="#ECECEC"/>
<path d="M379.042 118.729H125.812C97.7796 118.729 75.0552 135.16 75.0552 155.429V611.03C75.0552 631.299 97.7796 647.73 125.812 647.73H379.042C407.074 647.73 429.798 631.299 429.798 611.03V155.429C429.798 135.16 407.074 118.729 379.042 118.729Z" fill="#ECECEC"/>
<path d="M383.745 115.328H130.514C102.482 115.328 79.7578 131.759 79.7578 152.028V607.63C79.7578 627.899 102.482 644.33 130.514 644.33H383.745C411.777 644.33 434.501 627.899 434.501 607.63V152.028C434.501 131.759 411.777 115.328 383.745 115.328Z" fill="#EBEBEB"/>
<path d="M388.43 111.94H135.2C107.168 111.94 84.4434 128.372 84.4434 148.641V604.242C84.4434 624.511 107.168 640.942 135.2 640.942H388.43C416.462 640.942 439.187 624.511 439.187 604.242V148.641C439.187 128.372 416.462 111.94 388.43 111.94Z" fill="#EBEBEB"/>
<path d="M393.116 108.552H139.886C111.854 108.552 89.1294 124.983 89.1294 145.252V600.853C89.1294 621.122 111.854 637.553 139.886 637.553H393.116C421.148 637.553 443.873 621.122 443.873 600.853V145.252C443.873 124.983 421.148 108.552 393.116 108.552Z" fill="#EBEAEA"/>
<path d="M397.818 105.151H144.588C116.556 105.151 93.8315 121.583 93.8315 141.852V597.453C93.8315 617.722 116.556 634.153 144.588 634.153H397.818C425.85 634.153 448.575 617.722 448.575 597.453V141.852C448.575 121.583 425.85 105.151 397.818 105.151Z" fill="#EAEAEA"/>
<path d="M402.504 101.764H149.274C121.242 101.764 98.5176 118.195 98.5176 138.464V594.065C98.5176 614.334 121.242 630.765 149.274 630.765H402.504C430.536 630.765 453.261 614.334 453.261 594.065V138.464C453.261 118.195 430.536 101.764 402.504 101.764Z" fill="#EAEAE9"/>
<path d="M407.19 98.376H153.96C125.928 98.376 103.203 114.807 103.203 135.076V590.677C103.203 610.946 125.928 627.378 153.96 627.378H407.19C435.222 627.378 457.946 610.946 457.946 590.677V135.076C457.946 114.807 435.222 98.376 407.19 98.376Z" fill="#E9E9E9"/>
<path d="M411.893 94.9756H158.662C130.63 94.9756 107.906 111.407 107.906 131.676V587.277C107.906 607.546 130.63 623.977 158.662 623.977H411.893C439.925 623.977 462.649 607.546 462.649 587.277V131.676C462.649 111.407 439.925 94.9756 411.893 94.9756Z" fill="#E9E9E8"/>
<path d="M416.578 91.5869H163.348C135.316 91.5869 112.591 108.018 112.591 128.287V583.888C112.591 604.157 135.316 620.589 163.348 620.589H416.578C444.61 620.589 467.335 604.157 467.335 583.888V128.287C467.335 108.018 444.61 91.5869 416.578 91.5869Z" fill="#E9E8E8"/>
<path d="M421.264 88.1992H168.034C140.002 88.1992 117.277 104.63 117.277 124.899V580.501C117.277 600.77 140.002 617.201 168.034 617.201H421.264C449.296 617.201 472.021 600.77 472.021 580.501V124.899C472.021 104.63 449.296 88.1992 421.264 88.1992Z" fill="#E8E8E8"/>
<path d="M425.966 84.7988H172.736C144.704 84.7988 121.979 101.23 121.979 121.499V577.1C121.979 597.369 144.704 613.801 172.736 613.801H425.966C453.998 613.801 476.723 597.369 476.723 577.1V121.499C476.723 101.23 453.998 84.7988 425.966 84.7988Z" fill="#E8E7E7"/>
<path d="M430.652 81.4111H177.422C149.39 81.4111 126.666 97.8424 126.666 118.111V573.713C126.666 593.982 149.39 610.413 177.422 610.413H430.652C458.684 610.413 481.409 593.982 481.409 573.713V118.111C481.409 97.8424 458.684 81.4111 430.652 81.4111Z" fill="#E7E7E7"/>
<path d="M435.338 78.0234H182.108C154.076 78.0234 131.351 94.4547 131.351 114.724V570.325C131.351 590.594 154.076 607.025 182.108 607.025H435.338C463.37 607.025 486.094 590.594 486.094 570.325V114.724C486.094 94.4547 463.37 78.0234 435.338 78.0234Z" fill="#E7E7E6"/>
<path d="M440.04 74.6221H186.81C158.778 74.6221 136.054 91.0533 136.054 111.322V566.923C136.054 587.193 158.778 603.624 186.81 603.624H440.04C468.073 603.624 490.797 587.193 490.797 566.923V111.322C490.797 91.0533 468.073 74.6221 440.04 74.6221Z" fill="#E7E6E6"/>
<path d="M444.726 71.2344H191.496C163.464 71.2344 140.739 87.6656 140.739 107.935V563.536C140.739 583.805 163.464 600.236 191.496 600.236H444.726C472.758 600.236 495.482 583.805 495.482 563.536V107.935C495.482 87.6656 472.758 71.2344 444.726 71.2344Z" fill="#E6E6E6"/>
<path d="M449.412 67.8467H196.181C168.149 67.8467 145.425 84.278 145.425 104.547V560.148C145.425 580.417 168.149 596.848 196.181 596.848H449.412C477.444 596.848 500.168 580.417 500.168 560.148V104.547C500.168 84.278 477.444 67.8467 449.412 67.8467Z" fill="#E6E5E5"/>
<path d="M454.114 64.4463H200.884C172.852 64.4463 150.127 80.8776 150.127 101.147V556.748C150.127 577.017 172.852 593.448 200.884 593.448H454.114C482.146 593.448 504.871 577.017 504.871 556.748V101.147C504.871 80.8776 482.146 64.4463 454.114 64.4463Z" fill="#E5E5E5"/>
<path d="M458.8 61.0586H205.569C177.537 61.0586 154.813 77.4899 154.813 97.7589V553.36C154.813 573.629 177.537 590.06 205.569 590.06H458.8C486.832 590.06 509.556 573.629 509.556 553.36V97.7589C509.556 77.4899 486.832 61.0586 458.8 61.0586Z" fill="#E5E5E4"/>
<path d="M463.486 57.6699H210.256C182.223 57.6699 159.499 74.1012 159.499 94.3702V549.971C159.499 570.24 182.223 586.672 210.256 586.672H463.486C491.518 586.672 514.242 570.24 514.242 549.971V94.3702C514.242 74.1012 491.518 57.6699 463.486 57.6699Z" fill="#E4E4E4"/>
<path d="M468.188 54.2695H214.958C186.926 54.2695 164.201 70.7008 164.201 90.9698V546.571C164.201 566.84 186.926 583.271 214.958 583.271H468.188C496.22 583.271 518.944 566.84 518.944 546.571V90.9698C518.944 70.7008 496.22 54.2695 468.188 54.2695Z" fill="#E4E4E3"/>
<path d="M472.874 50.8818H219.644C191.612 50.8818 168.887 67.3131 168.887 87.5821V543.183C168.887 563.452 191.612 579.884 219.644 579.884H472.874C500.906 579.884 523.63 563.452 523.63 543.183V87.5821C523.63 67.3131 500.906 50.8818 472.874 50.8818Z" fill="#E4E3E3"/>
<path d="M477.559 47.4941H224.329C196.297 47.4941 173.573 63.9254 173.573 84.1944V539.796C173.573 560.065 196.297 576.496 224.329 576.496H477.559C505.592 576.496 528.316 560.065 528.316 539.796V84.1944C528.316 63.9254 505.592 47.4941 477.559 47.4941Z" fill="#E3E3E3"/>
<path d="M482.262 44.0938H229.032C201 44.0938 178.275 60.525 178.275 80.794V536.395C178.275 556.664 201 573.095 229.032 573.095H482.262C510.294 573.095 533.019 556.664 533.019 536.395V80.794C533.019 60.525 510.294 44.0938 482.262 44.0938Z" fill="#E3E3E2"/>
<path d="M486.948 40.7051H233.717C205.685 40.7051 182.961 57.1363 182.961 77.4053V533.007C182.961 553.276 205.685 569.707 233.717 569.707H486.948C514.98 569.707 537.704 553.276 537.704 533.007V77.4053C537.704 57.1363 514.98 40.7051 486.948 40.7051Z" fill="#E2E2E2"/>
<path d="M491.633 37.3174H238.403C210.371 37.3174 187.646 53.7486 187.646 74.0176V529.619C187.646 549.888 210.371 566.319 238.403 566.319H491.633C519.665 566.319 542.39 549.888 542.39 529.619V74.0176C542.39 53.7486 519.665 37.3174 491.633 37.3174Z" fill="#E2E2E1"/>
<path d="M496.336 33.917H243.106C215.074 33.917 192.349 50.3483 192.349 70.6173V526.218C192.349 546.487 215.074 562.919 243.106 562.919H496.336C524.368 562.919 547.092 546.487 547.092 526.218V70.6173C547.092 50.3483 524.368 33.917 496.336 33.917Z" fill="#E2E1E1"/>
<path d="M501.022 30.5293H247.792C219.76 30.5293 197.035 46.9606 197.035 67.2296V522.831C197.035 543.1 219.76 559.531 247.792 559.531H501.022C529.054 559.531 551.778 543.1 551.778 522.831V67.2296C551.778 46.9606 529.054 30.5293 501.022 30.5293Z" fill="#E1E1E1"/>
<path d="M505.707 27.1406H252.477C224.445 27.1406 201.721 43.5719 201.721 63.8409V519.442C201.721 539.711 224.445 556.142 252.477 556.142H505.707C533.74 556.142 556.464 539.711 556.464 519.442V63.8409C556.464 43.5719 533.74 27.1406 505.707 27.1406Z" fill="#E1E1E0"/>
<path d="M510.41 23.7412H257.18C229.148 23.7412 206.423 40.1725 206.423 60.4415V516.043C206.423 536.312 229.148 552.743 257.18 552.743H510.41C538.442 552.743 561.167 536.312 561.167 516.043V60.4415C561.167 40.1725 538.442 23.7412 510.41 23.7412Z" fill="#E0E0E0"/>
<path d="M515.096 20.3525H261.865C233.833 20.3525 211.109 36.7838 211.109 57.0528V512.654C211.109 532.923 233.833 549.354 261.865 549.354H515.096C543.128 549.354 565.852 532.923 565.852 512.654V57.0528C565.852 36.7838 543.128 20.3525 515.096 20.3525Z" fill="#E0E0DF"/>
<path d="M519.781 16.9648H266.551C238.519 16.9648 215.794 33.3961 215.794 53.6651V509.266C215.794 529.535 238.519 545.967 266.551 545.967H519.781C547.813 545.967 570.538 529.535 570.538 509.266V53.6651C570.538 33.3961 547.813 16.9648 519.781 16.9648Z" fill="#DFDFDF"/>
<path d="M524.467 13.5645H271.237C243.205 13.5645 220.48 29.9957 220.48 50.2647V505.866C220.48 526.135 243.205 542.566 271.237 542.566H524.467C552.499 542.566 575.224 526.135 575.224 505.866V50.2647C575.224 29.9957 552.499 13.5645 524.467 13.5645Z" fill="#DFDFDF"/>
<path d="M529.169 10.1768H275.939C247.907 10.1768 225.183 26.608 225.183 46.877V502.478C225.183 522.747 247.907 539.178 275.939 539.178H529.169C557.201 539.178 579.926 522.747 579.926 502.478V46.877C579.926 26.608 557.201 10.1768 529.169 10.1768Z" fill="#DFDFDE"/>
<path d="M533.855 6.78809H280.625C252.593 6.78809 229.869 23.2194 229.869 43.4883V499.09C229.869 519.359 252.593 535.79 280.625 535.79H533.855C561.887 535.79 584.612 519.359 584.612 499.09V43.4883C584.612 23.2194 561.887 6.78809 533.855 6.78809Z" fill="#DEDEDE"/>
<path d="M538.541 3.3877H285.311C257.279 3.3877 234.554 19.819 234.554 40.088V495.689C234.554 515.958 257.279 532.389 285.311 532.389H538.541C566.573 532.389 589.297 515.958 589.297 495.689V40.088C589.297 19.819 566.573 3.3877 538.541 3.3877Z" fill="#DEDEDD"/>
<path d="M543.244 0H290.013C261.981 0 239.257 16.4313 239.257 36.7003V492.301C239.257 512.57 261.981 529.002 290.013 529.002H543.244C571.276 529.002 594 512.57 594 492.301V36.7003C594 16.4313 571.276 0 543.244 0Z" fill="#DDDDDD"/>
</svg>
