<?xml version="1.0" encoding="UTF-8"?>
<svg id="Layer_1" xmlns="http://www.w3.org/2000/svg" version="1.1" viewBox="0 0 304 381.1">
  <!-- Generator: Adobe Illustrator 29.0.1, SVG Export Plug-In . SVG Version: 2.1.0 Build 192)  -->
  <defs>
    <style>
      .st0 {
        fill: none;
        stroke: #29bdbf;
        stroke-width: 5px;
      }
    </style>
  </defs>
  <path class="st0" d="M290.7,44.7c6,0,10.8,4.8,10.8,10.8s-4.8,10.8-10.8,10.8-10.8-4.8-10.8-10.8,4.8-10.8,10.8-10.8Z"/>
  <path class="st0" d="M233.7,73.1c6,0,10.8,4.8,10.8,10.8s-4.8,10.8-10.8,10.8-10.8-4.8-10.8-10.8,4.8-10.8,10.8-10.8Z"/>
  <path class="st0" d="M188.1,2.9c6,0,10.8,4.8,10.8,10.8s-4.8,10.8-10.8,10.8-10.8-4.8-10.8-10.8,4.8-10.8,10.8-10.8Z"/>
  <path class="st0" d="M87.4,27.6c6,0,10.8,4.8,10.8,10.8s-4.8,10.8-10.8,10.8-10.8-4.8-10.8-10.8,4.8-10.8,10.8-10.8Z"/>
  <path class="st0" d="M13.3,23.8c6,0,10.8,4.8,10.8,10.8s-4.8,10.8-10.8,10.8-10.8-4.8-10.8-10.8,4.8-10.8,10.8-10.8Z"/>
  <path class="st0" d="M76,101.6c6,0,10.8,4.8,10.8,10.8s-4.8,10.8-10.8,10.8-10.8-4.8-10.8-10.8,4.8-10.8,10.8-10.8Z"/>
  <path class="st0" d="M197.6,206c6,0,10.8,4.8,10.8,10.8s-4.8,10.8-10.8,10.8-10.8-4.8-10.8-10.8,4.8-10.8,10.8-10.8Z"/>
  <path class="st0" d="M290.7,68.8l.9,143.3-19.9,25.6v144.3"/>
  <path class="st0" d="M233.7,381.1v-169.9l19.9-14.2v-42.7l-19.9-14.2v-43.7"/>
  <path class="st0" d="M197.6,381.1v-150.9"/>
  <path class="st0" d="M156.8,381.1v-203.1l32.3-30.4V26"/>
  <path class="st0" d="M114.4,382V76.5l-19.4-28.6M116.3,95.6h-1.4"/>
  <path class="st0" d="M76,381.1V124.8"/>
  <path class="st0" d="M75,170.3L13.3,108.6v-60.8"/>
</svg>